<svg width="800" height="800" viewBox="0 0 800 800" fill="none" xmlns="http://www.w3.org/2000/svg">
<path fill-rule="evenodd" clip-rule="evenodd" d="M793.314 612.349L793.377 612.436C804.357 626.776 809.627 674.389 734.194 665.933C711.987 663.446 680.94 659.053 643.627 644.906C618.504 635.379 596.62 623.423 578.614 611.743C548.997 623.663 517.06 630.989 483.71 632.859C438.12 693.853 365.34 733.336 283.334 733.336C256.384 733.336 230.379 729.059 205.991 721.133C191.339 729.639 174.678 737.923 156.263 744.906C118.951 759.053 87.9834 764.326 65.6978 765.933C49.0098 767.136 37.2748 766.279 31.4704 765.606C18.7485 764.133 7.31789 756.883 2.40489 744.659C-1.9059 733.933 -0.346425 721.733 6.51833 712.429C14.9402 700.946 22.6817 688.913 29.9995 676.706C44.2701 652.896 58.2644 627.226 61.8064 599.299C43.6164 564.613 33.3341 525.133 33.3341 483.336C33.3341 383.529 91.8191 297.385 176.387 257.301C210.048 128.435 327.252 33.3359 466.667 33.3359C632.354 33.3359 766.667 167.651 766.667 333.336C766.667 379.123 756.387 422.596 737.984 461.496C731.64 518.959 760.524 567.349 793.314 612.349ZM233.334 333.336C233.334 204.47 337.8 100.003 466.667 100.003C595.534 100.003 700 204.47 700 333.336C700 370.663 691.26 405.856 675.744 437.063C674.14 440.286 673.07 443.749 672.574 447.316C665.28 499.813 677.594 547.669 702.74 593.613C666.34 584.839 632.037 568.773 601.74 546.786C591.82 539.586 578.75 538.413 567.707 543.726C537.174 558.419 502.93 566.669 466.667 566.669C337.8 566.669 233.334 462.203 233.334 333.336ZM166.785 341.813C170.63 480.433 268.51 595.549 398.914 625.653C367.377 651.299 327.15 666.669 283.334 666.669C259.024 666.669 235.897 661.956 214.757 653.423C204.716 649.369 193.331 650.446 184.228 656.309C169.599 665.736 152.206 675.146 132.627 682.569C119.631 687.496 107.755 691.056 97.1491 693.613C108.226 673.376 119.444 649.266 124.615 626.573C127.168 615.369 128.574 604.466 129.209 594.223C129.616 587.646 128.064 581.093 124.749 575.396C109.02 548.369 100.001 516.956 100.001 483.336C100.001 426.349 126 375.436 166.785 341.813Z" fill="#FFB01A"/>
</svg>
