<svg width="800" height="800" viewBox="0 0 800 800" fill="none" xmlns="http://www.w3.org/2000/svg">
<path d="M200.986 646.704C199.167 665.024 212.544 681.347 230.863 683.167C249.183 684.987 265.508 671.611 267.327 653.291L200.986 646.704ZM532.674 653.291C534.494 671.611 550.817 684.987 569.137 683.167C587.457 681.347 600.834 665.024 599.014 646.704L532.674 653.291ZM666.667 399.997C666.667 547.274 547.277 666.664 400 666.664V733.331C584.094 733.331 733.334 584.091 733.334 399.997H666.667ZM400 666.664C252.724 666.664 133.334 547.274 133.334 399.997H66.667C66.667 584.091 215.905 733.331 400 733.331V666.664ZM133.334 399.997C133.334 252.721 252.724 133.331 400 133.331V66.6641C215.905 66.6641 66.667 215.902 66.667 399.997H133.334ZM400 133.331C547.277 133.331 666.667 252.721 666.667 399.997H733.334C733.334 215.902 584.094 66.6641 400 66.6641V133.331ZM433.334 333.331C433.334 351.741 418.41 366.664 400 366.664V433.331C455.23 433.331 500 388.561 500 333.331H433.334ZM400 366.664C381.59 366.664 366.667 351.741 366.667 333.331H300C300 388.561 344.77 433.331 400 433.331V366.664ZM366.667 333.331C366.667 314.921 381.59 299.997 400 299.997V233.331C344.77 233.331 300 278.102 300 333.331H366.667ZM400 299.997C418.41 299.997 433.334 314.921 433.334 333.331H500C500 278.102 455.23 233.331 400 233.331V299.997ZM267.327 653.291C274.013 585.947 330.882 533.331 400 533.331V466.664C296.273 466.664 211.024 545.601 200.986 646.704L267.327 653.291ZM400 533.331C469.117 533.331 525.987 585.947 532.674 653.291L599.014 646.704C588.977 545.601 503.727 466.664 400 466.664V533.331Z" fill="#FFB01A"/>
</svg>
