<svg width="24" height="24" viewBox="0 0 24 24" fill="none" xmlns="http://www.w3.org/2000/svg">
<path d="M12.8715 6.32437C14.0713 6.52546 15.1613 7.09219 16.0315 7.96055C16.9016 8.82892 17.4649 9.91666 17.671 11.1141M13.0547 2.39844C15.1888 2.75949 17.1352 3.76954 18.6831 5.30974C20.2311 6.85452 21.2386 8.79691 21.6004 10.9267M19.9333 19.4001C19.9333 19.4001 18.7747 20.5381 18.4907 20.8717C18.0282 21.3653 17.4832 21.5984 16.7688 21.5984C16.7001 21.5984 16.6268 21.5984 16.5581 21.5939C15.1979 21.507 13.9339 20.9769 12.9859 20.5244C10.3938 19.2721 8.11773 17.4943 6.22631 15.2411C4.66463 13.3627 3.62046 11.626 2.92893 9.76125C2.50302 8.62324 2.34731 7.73659 2.416 6.90022C2.4618 6.36549 2.66789 5.92217 3.048 5.54283L4.60968 3.98434C4.83408 3.77411 5.07223 3.65985 5.30579 3.65985C5.59431 3.65985 5.82788 3.83352 5.97443 3.97977C5.97901 3.98434 5.98359 3.98891 5.98817 3.99348C6.26753 4.25399 6.53315 4.52364 6.81251 4.81157C6.95448 4.95783 7.10103 5.10408 7.24758 5.2549L8.49784 6.5026C8.98329 6.98706 8.98329 7.43495 8.49784 7.91941C8.36503 8.05195 8.2368 8.18448 8.10399 8.31245C7.71929 8.7055 8.02149 8.40392 7.62306 8.76041C7.6139 8.76955 7.60474 8.77412 7.60016 8.78326C7.2063 9.17631 7.27958 9.56022 7.36201 9.82073C7.36659 9.83444 7.37117 9.84815 7.37575 9.86186C7.70091 10.648 8.15888 11.3884 8.855 12.2704L8.85958 12.275C10.1236 13.8289 11.4563 15.0401 12.9263 15.9678C13.1141 16.0867 13.3065 16.1826 13.4896 16.274C13.6545 16.3563 13.8102 16.434 13.943 16.5163C13.9614 16.5254 13.9797 16.5391 13.998 16.5483C14.1537 16.626 14.3003 16.6625 14.4514 16.6625C14.8315 16.6625 15.0696 16.4249 15.1475 16.3472L16.0452 15.4513C16.2009 15.2959 16.4482 15.1085 16.7367 15.1085C17.0207 15.1085 17.2542 15.2868 17.3962 15.4422C17.4008 15.4468 17.4008 15.4468 17.4054 15.4513L19.9288 17.9696C20.4005 18.4358 19.9333 19.4001 19.9333 19.4001Z" stroke="#FFB01A" stroke-width="2" stroke-linecap="round" stroke-linejoin="round"/>
</svg>
